<svg width="32" height="33" viewBox="0 0 32 33" fill="none" xmlns="http://www.w3.org/2000/svg">
<g clip-path="url(#clip0_19_262)">
<path d="M21.3333 21.8333C24.2789 21.8333 26.6667 19.4455 26.6667 16.5C26.6667 13.5544 24.2789 11.1666 21.3333 11.1666C18.3878 11.1666 16 13.5544 16 16.5C16 19.4455 18.3878 21.8333 21.3333 21.8333Z" fill="#19BCFE"/>
<path fill-rule="evenodd" clip-rule="evenodd" d="M10.6667 32.5C13.6122 32.5 16 30.1122 16 27.1667C16 26.3626 16 24.5849 16 21.8334C13.6041 21.8334 11.8263 21.8334 10.6667 21.8334C7.72116 21.8334 5.33334 24.2212 5.33334 27.1667C5.33334 30.1122 7.72116 32.5 10.6667 32.5Z" fill="#09CF83"/>
<path fill-rule="evenodd" clip-rule="evenodd" d="M10.6667 21.8333H16V11.1666C13.4263 11.1666 11.6485 11.1666 10.6667 11.1666C7.72116 11.1666 5.33334 13.5544 5.33334 16.5C5.33334 19.4455 7.72116 21.8333 10.6667 21.8333Z" fill="#A259FF"/>
<path fill-rule="evenodd" clip-rule="evenodd" d="M10.6667 11.1667H16V0.5C13.4263 0.5 11.6485 0.5 10.6667 0.5C7.72116 0.5 5.33334 2.88781 5.33334 5.83333C5.33334 8.77885 7.72116 11.1667 10.6667 11.1667Z" fill="#F24E1E"/>
<path fill-rule="evenodd" clip-rule="evenodd" d="M21.3333 11.1667H16V0.5H21.3333C24.2789 0.5 26.6667 2.88781 26.6667 5.83333C26.6667 8.77885 24.2789 11.1667 21.3333 11.1667Z" fill="#FF7262"/>
</g>
<defs>
<clipPath id="clip0_19_262">
<rect width="32" height="32" fill="white" transform="translate(0 0.5)"/>
</clipPath>
</defs>
</svg>
