<svg width="32" height="33" viewBox="0 0 32 33" fill="none" xmlns="http://www.w3.org/2000/svg">
<path d="M5.8 25.0999L5.97 24.8629L13.99 9.64894L14.007 9.48794L10.472 2.84794C10.4073 2.72652 10.306 2.62852 10.1826 2.5678C10.0591 2.50709 9.91964 2.48674 9.78397 2.50963C9.64829 2.53252 9.52325 2.59749 9.42653 2.69535C9.3298 2.79321 9.2663 2.91901 9.245 3.05494L5.8 25.0999Z" fill="#FFC24A"/>
<path d="M5.89999 24.9201L6.02799 24.6701L13.965 9.61406L10.439 2.94806C10.3808 2.83213 10.2867 2.73817 10.1707 2.68024C10.0546 2.62231 9.92295 2.60354 9.79535 2.62674C9.66775 2.64994 9.5511 2.71386 9.46288 2.80893C9.37466 2.90399 9.31961 3.02509 9.30599 3.15406L5.89999 24.9201Z" fill="#FFA712"/>
<path d="M16.584 14.51L19.216 11.81L16.583 6.78896C16.5251 6.6809 16.4389 6.59058 16.3337 6.52762C16.2284 6.46465 16.1081 6.4314 15.9855 6.4314C15.8629 6.4314 15.7426 6.46465 15.6373 6.52762C15.5321 6.59058 15.446 6.6809 15.388 6.78896L13.981 9.47096V9.69996L16.584 14.51Z" fill="#F4BD62"/>
<path d="M16.537 14.4L19.096 11.78L16.537 6.89998C16.4951 6.79434 16.4236 6.70308 16.331 6.6372C16.2384 6.57131 16.1288 6.53361 16.0152 6.52864C15.9017 6.52367 15.7892 6.55165 15.6912 6.6092C15.5932 6.66674 15.514 6.75141 15.463 6.85298L14.049 9.58198L14.007 9.72098L16.537 14.4Z" fill="#FFA50E"/>
<path d="M5.802 25.1011L5.879 25.0231L6.158 24.9101L16.418 14.6881L16.548 14.3341L13.989 9.45605L5.802 25.1011Z" fill="#F6820C"/>
<path d="M16.912 30.2559L26.2 25.0769L23.546 8.74595C23.527 8.63083 23.4766 8.52317 23.4004 8.4348C23.3242 8.34643 23.2251 8.28077 23.1141 8.24502C23.003 8.20927 22.8842 8.20481 22.7708 8.23214C22.6573 8.25947 22.5536 8.31753 22.471 8.39995L5.8 25.0999L15.033 30.2549C15.32 30.4151 15.6433 30.4992 15.972 30.4992C16.3007 30.4992 16.624 30.4151 16.911 30.2549" fill="#FDE068"/>
<path d="M26.115 25.034L23.483 8.82599C23.4783 8.71588 23.4411 8.60962 23.3761 8.52066C23.311 8.4317 23.221 8.36405 23.1175 8.32625C23.014 8.28846 22.9015 8.28223 22.7945 8.30835C22.6874 8.33447 22.5905 8.39177 22.516 8.47299L5.89999 25.069L15.031 30.169C15.3158 30.3279 15.6364 30.4112 15.9625 30.4112C16.2886 30.4112 16.6092 30.3279 16.894 30.169L26.115 25.034Z" fill="#FCCA3F"/>
<path d="M16.912 30.1C16.625 30.2602 16.3017 30.3443 15.973 30.3443C15.6443 30.3443 15.321 30.2602 15.034 30.1L5.876 25.022L5.8 25.1L15.033 30.255C15.32 30.4152 15.6433 30.4993 15.972 30.4993C16.3007 30.4993 16.624 30.4152 16.911 30.255L26.2 25.077L26.177 24.937L16.912 30.1Z" fill="#EEAB37"/>
</svg>
