<svg width="32" height="33" viewBox="0 0 32 33" fill="none" xmlns="http://www.w3.org/2000/svg">
<g clip-path="url(#clip0_19_260)">
<path d="M31.3965 15.0742L17.4248 1.10356C16.6208 0.298814 15.3157 0.298814 14.5106 1.10356L11.6094 4.00477L15.2897 7.6851C16.145 7.39613 17.1257 7.58995 17.8075 8.2718C18.4926 8.95787 18.685 9.94694 18.389 10.8051L21.9359 14.352C22.794 14.0563 23.7841 14.2477 24.4695 14.9341C25.4273 15.8916 25.4273 17.4435 24.4695 18.4017C23.5113 19.3598 21.9594 19.3598 21.0009 18.4017C20.2804 17.6805 20.1024 16.6222 20.4672 15.7346L17.1594 12.4268L17.159 21.1315C17.3925 21.2474 17.613 21.4015 17.8075 21.5953C18.7654 22.5528 18.7654 24.1047 17.8075 25.0636C16.8494 26.0214 15.2968 26.0214 14.34 25.0636C13.3822 24.1047 13.3822 22.5528 14.34 21.5953C14.5766 21.359 14.8505 21.1803 15.1426 21.0602V12.2744C14.8505 12.1551 14.577 11.9774 14.34 11.7394C13.6143 11.0147 13.4398 9.94975 13.8116 9.05864L10.1839 5.43027L0.603904 15.0096C-0.201189 15.815 -0.201189 17.1201 0.603904 17.9248L14.5756 31.8958C15.38 32.7006 16.6847 32.7006 17.4901 31.8958L31.3965 17.9898C32.2013 17.1847 32.2013 15.8789 31.3965 15.0742Z" fill="#DE4C36"/>
</g>
<defs>
<clipPath id="clip0_19_260">
<rect width="32" height="32" fill="white" transform="translate(0 0.5)"/>
</clipPath>
</defs>
</svg>
