<svg width="32" height="33" viewBox="0 0 32 33" fill="none" xmlns="http://www.w3.org/2000/svg">
<path d="M0.50025 23.1145H1.52725V19.0587L3.11725 22.5945C3.30475 23.0225 3.5615 23.1737 4.06525 23.1737C4.569 23.1737 4.816 23.0225 5.0035 22.5945L6.5935 19.0587V23.1145H7.6205V19.0655C7.6205 18.6705 7.4625 18.4792 7.1365 18.3807C6.35625 18.1372 5.83275 18.348 5.59575 18.8747L4.0355 22.3642L2.52475 18.8745C2.2975 18.348 1.76425 18.1372 0.984 18.3805C0.658 18.4792 0.5 18.6702 0.5 19.0652L0.50025 23.1145ZM8.47475 19.813H9.5015V22.0475C9.492 22.1687 9.5405 22.4537 10.103 22.4627C10.39 22.4672 12.3185 22.4627 12.3365 22.4627V19.802H13.3658C13.3705 19.802 13.3647 23.4305 13.3647 23.4455C13.3702 24.3405 12.2545 24.5347 11.74 24.5497H8.497V23.8587C8.5025 23.8587 11.7378 23.8595 11.7458 23.8585C12.407 23.7887 12.3287 23.4602 12.3285 23.3497V23.0802H10.1458C9.13025 23.071 8.48325 22.6277 8.475 22.1177C8.4745 22.071 8.49725 19.8355 8.47475 19.813Z" fill="#00618A"/>
<path d="M14.1575 23.1145H17.1105C17.4563 23.1145 17.7923 23.0423 18.0588 22.9173C18.503 22.7133 18.7203 22.4368 18.7203 22.0743V21.3238C18.7203 21.0275 18.4735 20.7508 17.9895 20.5668C17.7328 20.4678 17.4165 20.4155 17.1103 20.4155H15.8658C15.451 20.4155 15.2535 20.2905 15.2043 20.014C15.1945 19.981 15.1945 19.9548 15.1945 19.9218V19.4543C15.1945 19.428 15.1945 19.4015 15.2043 19.3688C15.2535 19.158 15.3623 19.0988 15.7278 19.0658L15.8265 19.0593H18.7598V18.3748H15.876C15.4613 18.3748 15.244 18.401 15.0465 18.4603C14.4343 18.6513 14.1673 18.954 14.1673 19.4808V20.0798C14.1673 20.5408 14.691 20.9358 15.5698 21.028C15.6688 21.0343 15.7673 21.0413 15.866 21.0413H16.9328C16.9723 21.0413 17.0118 21.0413 17.0415 21.0475C17.3675 21.0738 17.5055 21.1333 17.6045 21.2515C17.6638 21.3108 17.6833 21.3703 17.6833 21.4358V22.035C17.6833 22.1073 17.634 22.1995 17.5353 22.2785C17.4465 22.3575 17.2983 22.4103 17.1008 22.4235L16.992 22.43H14.1575V23.1145ZM25.1278 21.923C25.1278 22.6273 25.6513 23.0223 26.7078 23.1015C26.8065 23.108 26.9053 23.1145 27.004 23.1145H29.6805V22.43H26.9845C26.382 22.43 26.155 22.2785 26.155 21.9163V18.3743H25.128L25.1278 21.923ZM19.3758 21.9585V19.5173C19.3758 18.8973 19.8113 18.521 20.6723 18.4023C20.7613 18.389 20.8605 18.3825 20.9493 18.3825H22.899C22.998 18.3825 23.087 18.389 23.1858 18.4023C24.0468 18.521 24.4825 18.897 24.4825 19.5173V21.9585C24.4825 22.462 24.2975 22.731 23.8713 22.9065L24.8833 23.8198H23.6905L22.872 23.0808L22.048 23.133H20.9493C20.7613 23.133 20.5635 23.1068 20.3458 23.0473C19.6925 22.8693 19.3758 22.526 19.3758 21.9585ZM20.4843 21.8993C20.4843 21.9323 20.494 21.9655 20.504 22.005C20.5633 22.2888 20.8308 22.447 21.2363 22.447H22.1693L21.3123 21.6733H22.505L23.2523 22.3483C23.3903 22.2745 23.4808 22.1625 23.5125 22.0183C23.5223 21.9853 23.5223 21.9523 23.5223 21.9193V19.5773C23.5223 19.551 23.5223 19.5178 23.5125 19.4848C23.453 19.2208 23.1858 19.0693 22.79 19.0693H21.236C20.781 19.0693 20.484 19.2673 20.484 19.5773L20.4843 21.8993Z" fill="#E48E00"/>
<path d="M30.584 17.238C29.9528 17.2208 29.4705 17.2795 29.058 17.4533C28.9408 17.5028 28.754 17.504 28.735 17.6508C28.7993 17.7185 28.8093 17.8193 28.8605 17.9023C28.959 18.0615 29.1253 18.275 29.2735 18.3868C29.4353 18.509 29.6023 18.64 29.7763 18.746C30.085 18.9345 30.43 19.042 30.7278 19.2305C30.903 19.342 31.077 19.482 31.2483 19.6078C31.333 19.6695 31.3895 19.7663 31.4998 19.805V19.7873C31.442 19.7138 31.427 19.6128 31.374 19.5358L31.1405 19.3023C30.9123 18.9993 30.6228 18.7335 30.3145 18.5125C30.069 18.3363 29.5195 18.098 29.417 17.8123L29.399 17.7945C29.573 17.7748 29.777 17.7118 29.9375 17.6688C30.2075 17.5963 30.4488 17.615 30.7275 17.543L31.1045 17.435V17.3635C30.9638 17.219 30.863 17.0275 30.7095 16.8968C30.3078 16.5545 29.8688 16.2125 29.417 15.927C29.1665 15.769 28.8568 15.6663 28.591 15.5323C28.502 15.487 28.345 15.4638 28.2858 15.3885C28.146 15.2108 28.0703 14.9855 27.9625 14.7783C27.7375 14.3445 27.516 13.8705 27.3163 13.4138C27.1803 13.1025 27.0913 12.7955 26.9215 12.5163C26.1063 11.176 25.2288 10.367 23.8695 9.57202C23.5803 9.40277 23.232 9.33627 22.8643 9.24902L22.2718 9.21302C22.1515 9.16277 22.026 9.01527 21.9128 8.94377C21.4623 8.65927 20.3073 8.04052 19.9738 8.85427C19.7633 9.36777 20.2888 9.86877 20.4765 10.129C20.6083 10.3115 20.7773 10.516 20.8715 10.7213C20.9335 10.8563 20.944 10.9915 20.9973 11.1343C21.1275 11.4858 21.2413 11.8685 21.41 12.1933C21.4953 12.3578 21.5895 12.531 21.6973 12.678C21.7633 12.768 21.8768 12.808 21.8945 12.9473C21.7838 13.1023 21.7773 13.3433 21.715 13.5395C21.4345 14.4243 21.5403 15.524 21.9485 16.1788C22.0738 16.38 22.3688 16.811 22.7743 16.6455C23.129 16.501 23.05 16.0533 23.1515 15.658C23.1745 15.5688 23.1603 15.5028 23.2053 15.4428V15.4608L23.5285 16.107C23.7678 16.4923 24.192 16.8945 24.5518 17.1663C24.7383 17.307 24.8853 17.5508 25.1263 17.633V17.6148H25.1085C25.0615 17.542 24.9888 17.512 24.9288 17.4533C24.7883 17.3155 24.632 17.1445 24.516 16.9865C24.1888 16.5425 23.8998 16.0563 23.6363 15.5503C23.5105 15.3088 23.4013 15.0423 23.2953 14.7963C23.2543 14.7015 23.2548 14.558 23.1698 14.5093C23.0533 14.6893 22.8825 14.835 22.7925 15.0478C22.649 15.3878 22.6305 15.8025 22.5773 16.2325L22.5413 16.2503C22.291 16.19 22.2033 15.9325 22.1103 15.7118C21.8753 15.1535 21.8315 14.2543 22.0385 13.6115C22.092 13.445 22.3338 12.9213 22.2358 12.7675C22.189 12.6143 22.0348 12.5258 21.9488 12.4083C21.842 12.2635 21.7353 12.073 21.6615 11.9055C21.469 11.4703 21.3793 10.9815 21.177 10.5413C21.08 10.3308 20.9165 10.118 20.782 9.93102C20.6333 9.72352 20.4665 9.57102 20.351 9.32052C20.31 9.23152 20.2543 9.08877 20.315 8.99727C20.3343 8.93552 20.362 8.90977 20.423 8.88952C20.527 8.80927 20.817 8.91627 20.9255 8.96127C21.2135 9.08102 21.4538 9.19477 21.6978 9.35627C21.8148 9.43402 21.933 9.58402 22.0748 9.62552H22.2363C22.489 9.68352 22.7723 9.64327 23.0083 9.71502C23.4258 9.84202 23.7998 10.0393 24.1393 10.2538C25.174 10.9073 26.0198 11.8373 26.5988 12.9468C26.6918 13.1255 26.7323 13.2958 26.814 13.4853C26.9795 13.8673 27.188 14.2605 27.3525 14.6343C27.5168 15.007 27.677 15.3833 27.9093 15.6935C28.0313 15.8565 28.5028 15.944 28.717 16.0345C28.8673 16.098 29.1133 16.1643 29.2555 16.2498C29.5273 16.4138 29.7908 16.609 30.0455 16.7885C30.1728 16.879 30.5645 17.0758 30.584 17.238ZM22.5593 10.3983C22.4278 10.3958 22.3345 10.4128 22.236 10.4343V10.452H22.254C22.3168 10.5813 22.4275 10.6643 22.5053 10.7753L22.685 11.1523L22.7028 11.1345C22.814 11.0563 22.8648 10.931 22.8643 10.7395C22.8195 10.6925 22.813 10.6338 22.7745 10.578C22.7235 10.503 22.624 10.461 22.5593 10.3983Z" fill="#00618A"/>
</svg>
