<svg width="32" height="33" viewBox="0 0 32 33" fill="none" xmlns="http://www.w3.org/2000/svg">
<path d="M16 30.5C15.6223 30.5001 15.2512 30.4008 14.924 30.212L11.5 28.185C10.989 27.899 11.238 27.798 11.407 27.739C11.9505 27.5711 12.4708 27.3359 12.956 27.039C12.9966 27.0202 13.0413 27.0121 13.086 27.0154C13.1306 27.0187 13.1736 27.0334 13.211 27.058L15.842 28.621C15.891 28.6469 15.9456 28.6604 16.001 28.6604C16.0564 28.6604 16.111 28.6469 16.16 28.621L26.42 22.699C26.468 22.6702 26.5077 22.6295 26.5352 22.5807C26.5628 22.532 26.5772 22.4769 26.577 22.421V10.575C26.577 10.5181 26.5624 10.4622 26.5346 10.4126C26.5067 10.3631 26.4666 10.3215 26.418 10.292L16.158 4.37498C16.1096 4.34773 16.055 4.33341 15.9995 4.33341C15.944 4.33341 15.8894 4.34773 15.841 4.37498L5.587 10.294C5.53809 10.3229 5.49747 10.364 5.46909 10.4132C5.44071 10.4624 5.42552 10.5182 5.425 10.575V22.416C5.42514 22.4718 5.44012 22.5266 5.46841 22.5748C5.4967 22.6229 5.53728 22.6627 5.586 22.69L8.4 24.314C9.925 25.076 10.859 24.178 10.859 23.276V11.585C10.859 11.5456 10.8668 11.5066 10.8818 11.4702C10.8969 11.4338 10.919 11.4007 10.9469 11.3728C10.9747 11.345 11.0078 11.3229 11.0442 11.3078C11.0806 11.2927 11.1196 11.285 11.159 11.285H12.459C12.5386 11.285 12.6149 11.3166 12.6711 11.3728C12.7274 11.4291 12.759 11.5054 12.759 11.585V23.277C12.759 25.312 11.651 26.477 9.721 26.477C8.88838 26.4915 8.06881 26.2688 7.358 25.835L4.661 24.288C4.33359 24.0973 4.06192 23.8241 3.87311 23.4956C3.6843 23.1671 3.58496 22.7949 3.585 22.416V10.575C3.58403 10.1955 3.68295 9.82246 3.87182 9.49334C4.0607 9.16421 4.33287 8.89059 4.661 8.69998L14.922 2.77598C15.2525 2.59514 15.6232 2.50037 16 2.50037C16.3768 2.50037 16.7475 2.59514 17.078 2.77598L27.338 8.69998C27.6654 8.89027 27.9371 9.1631 28.1261 9.49123C28.3151 9.81936 28.4147 10.1913 28.415 10.57V22.416C28.4144 22.7949 28.3147 23.167 28.1258 23.4954C27.9369 23.8238 27.6653 24.0971 27.338 24.288L17.078 30.212C16.7502 30.4011 16.3784 30.5004 16 30.5Z" fill="#83CD29"/>
<path d="M14.054 18.453C14.054 18.3734 14.0856 18.2971 14.1419 18.2409C14.1981 18.1846 14.2744 18.153 14.354 18.153H15.681C15.7519 18.1532 15.8204 18.1786 15.8744 18.2245C15.9284 18.2705 15.9644 18.334 15.976 18.404C16.176 19.755 16.776 20.436 19.489 20.436C21.65 20.436 22.571 19.947 22.571 18.8C22.571 18.139 22.31 17.648 18.951 17.319C16.143 17.041 14.407 16.419 14.407 14.175C14.407 12.105 16.152 10.87 19.077 10.87C22.364 10.87 23.991 12.011 24.197 14.459C24.2001 14.4999 24.1949 14.5409 24.1815 14.5797C24.1682 14.6185 24.147 14.6541 24.1194 14.6843C24.0918 14.7146 24.0582 14.7389 24.0208 14.7557C23.9834 14.7725 23.943 14.7814 23.902 14.782H22.566C22.499 14.7811 22.4342 14.7577 22.382 14.7157C22.3298 14.6736 22.2932 14.6153 22.278 14.55C21.959 13.129 21.178 12.675 19.078 12.675C16.718 12.675 16.444 13.497 16.444 14.113C16.444 14.859 16.768 15.077 19.954 15.498C23.107 15.915 24.605 16.505 24.605 18.721C24.605 20.957 22.741 22.237 19.49 22.237C14.995 22.243 14.054 20.182 14.054 18.453Z" fill="#83CD29"/>
</svg>
