<svg width="32" height="33" viewBox="0 0 32 33" fill="none" xmlns="http://www.w3.org/2000/svg">
<path d="M16 18.974C17.3807 18.974 18.5 17.8547 18.5 16.474C18.5 15.0933 17.3807 13.974 16 13.974C14.6193 13.974 13.5 15.0933 13.5 16.474C13.5 17.8547 14.6193 18.974 16 18.974Z" fill="#00D8FF"/>
<path d="M16 22.206C12.9951 22.2787 9.9978 21.8737 7.12 21.006C5.79062 20.5846 4.55073 19.9208 3.463 19.048C3.04793 18.7499 2.70227 18.3655 2.44974 17.9212C2.19721 17.4769 2.04379 16.9832 2 16.474C2 14.821 3.816 13.201 6.858 12.141C9.81273 11.2018 12.8999 10.7466 16 10.793C19.0587 10.7503 22.1045 11.1973 25.022 12.117C26.3023 12.5252 27.5001 13.1569 28.56 13.983C28.968 14.2673 29.3084 14.6377 29.5573 15.0682C29.8061 15.4987 29.9573 15.9786 30 16.474C30 18.192 27.97 19.933 24.7 21.015C21.8779 21.8544 18.9438 22.2561 16 22.206ZM16 11.989C13.0341 11.9494 10.0808 12.3821 7.251 13.271C4.451 14.248 3.196 15.584 3.196 16.471C3.196 17.399 4.545 18.858 7.507 19.871C10.2601 20.6969 13.1266 21.0813 16 21.01C18.8164 21.0604 21.6239 20.6793 24.325 19.88C27.4 18.861 28.8 17.4 28.8 16.474C28.7495 16.1562 28.6337 15.8524 28.4599 15.5816C28.2861 15.3109 28.058 15.0791 27.79 14.901C26.8418 14.1682 25.7717 13.6083 24.629 13.247C21.838 12.3708 18.925 11.9461 16 11.989Z" fill="#00D8FF"/>
<path d="M10.32 28.943C9.85351 28.9537 9.39251 28.8405 8.98401 28.615C7.55201 27.789 7.05601 25.407 7.65701 22.242C8.31965 19.2131 9.46781 16.3113 11.057 13.649C12.5477 10.9781 14.4562 8.56289 16.71 6.49497C17.7032 5.58968 18.8489 4.86752 20.094 4.36197C20.5444 4.15091 21.0356 4.0415 21.533 4.0415C22.0304 4.0415 22.5216 4.15091 22.972 4.36197C24.461 5.21997 24.954 7.84797 24.259 11.221C23.5759 14.0855 22.4576 16.8284 20.943 19.354C19.5047 21.9933 17.6564 24.3875 15.467 26.447C14.4378 27.3878 13.2433 28.1299 11.944 28.636C11.4238 28.829 10.8748 28.9328 10.32 28.943ZM12.093 14.243C10.5771 16.7923 9.47667 19.5667 8.83301 22.462C8.28001 25.377 8.81101 27.13 9.58301 27.576C10.383 28.039 12.325 27.6 14.683 25.54C16.773 23.5669 18.5372 21.2752 19.91 18.75C21.3609 16.3355 22.4337 13.7131 23.091 10.974C23.745 7.79897 23.18 5.85497 22.378 5.39297C22.0774 5.2778 21.7562 5.22624 21.4347 5.24156C21.1131 5.25688 20.7983 5.33874 20.51 5.48197C19.4017 5.93932 18.3827 6.5886 17.5 7.39997C15.3467 9.38076 13.5237 11.6929 12.1 14.249L12.093 14.243Z" fill="#00D8FF"/>
<path d="M21.677 28.956C20.322 28.956 18.601 28.136 16.809 26.595C14.5157 24.5083 12.575 22.0644 11.062 19.358C9.49275 16.7323 8.35368 13.8725 7.68801 10.887C7.39932 9.57347 7.34583 8.21917 7.53001 6.88698C7.5726 6.39279 7.72308 5.91395 7.97085 5.48424C8.21862 5.05453 8.55764 4.68441 8.96401 4.39998C10.451 3.53898 12.974 4.42398 15.549 6.70998C17.6896 8.73216 19.5074 11.0707 20.939 13.644C22.5073 16.2083 23.6583 19.0055 24.349 21.931C24.6501 23.2927 24.6966 24.6984 24.486 26.077C24.4359 26.5854 24.2765 27.0769 24.0186 27.518C23.7607 27.959 23.4105 28.339 22.992 28.632C22.5902 28.8547 22.1363 28.9665 21.677 28.956ZM12.097 18.756C13.5484 21.3424 15.4023 23.6813 17.589 25.685C19.838 27.62 21.622 28.036 22.389 27.585C23.189 27.12 23.779 25.222 23.171 22.151C22.5049 19.3579 21.4009 16.6879 19.9 14.24C18.5338 11.7771 16.7988 9.53784 14.755 7.59998C12.331 5.44798 10.365 4.96698 9.56401 5.43098C9.31436 5.63386 9.10948 5.8863 8.96232 6.17237C8.81516 6.45843 8.72891 6.7719 8.70901 7.09298C8.55002 8.28106 8.60181 9.48788 8.86201 10.658C9.50232 13.5131 10.5948 16.2476 12.098 18.758L12.097 18.756Z" fill="#00D8FF"/>
</svg>
