<svg width="32" height="20" viewBox="0 0 32 20" fill="none" xmlns="http://www.w3.org/2000/svg">
<g clip-path="url(#clip0_17_205)">
<path d="M16 0.375C11.7333 0.375 9.06667 2.50833 8 6.775C9.6 4.64167 11.4667 3.84167 13.6 4.375C14.8172 4.6793 15.6872 5.56232 16.6501 6.5398C18.2188 8.1321 20.0344 9.975 24 9.975C28.2667 9.975 30.9333 7.84167 32 3.575C30.4 5.70833 28.5333 6.50833 26.4 5.975C25.1828 5.6707 24.3128 4.78768 23.3499 3.8102C21.7812 2.2179 19.9656 0.375 16 0.375ZM8 9.975C3.73333 9.975 1.06667 12.1083 0 16.375C1.6 14.2417 3.46667 13.4417 5.6 13.975C6.81719 14.2793 7.68717 15.1623 8.65013 16.1398C10.2188 17.7321 12.0344 19.575 16 19.575C20.2667 19.575 22.9333 17.4417 24 13.175C22.4 15.3083 20.5333 16.1083 18.4 15.575C17.1828 15.2707 16.3128 14.3877 15.3499 13.4102C13.7812 11.8179 11.9656 9.975 8 9.975Z" fill="url(#paint0_linear_17_205)"/>
</g>
<defs>
<linearGradient id="paint0_linear_17_205" x1="-227.556" y1="946.551" x2="7613.36" y2="3666.15" gradientUnits="userSpaceOnUse">
<stop stop-color="#2298BD"/>
<stop offset="1" stop-color="#0ED7B5"/>
</linearGradient>
<clipPath id="clip0_17_205">
<rect width="32" height="19.25" fill="white" transform="translate(0 0.375)"/>
</clipPath>
</defs>
</svg>
